<svg width="24" height="24" viewBox="0 0 24 24" fill="none" xmlns="http://www.w3.org/2000/svg">
<g clip-path="url(#clip0_2_30)">
<path fill-rule="evenodd" clip-rule="evenodd" d="M14.25 11.25H12.75V5.25H13.5C15.1569 5.25 16.5 6.59315 16.5 8.25C16.5 8.66421 16.8358 9 17.25 9C17.6642 9 18 8.66421 18 8.25C17.9974 5.76579 15.9842 3.75258 13.5 3.75H12.75V2.25C12.75 1.83579 12.4142 1.5 12 1.5C11.5858 1.5 11.25 1.83579 11.25 2.25V3.75H10.5C8.01472 3.75 6 5.76472 6 8.25C6 10.7353 8.01472 12.75 10.5 12.75H11.25V18.75H9.75C8.09315 18.75 6.75 17.4069 6.75 15.75C6.75 15.3358 6.41421 15 6 15C5.58579 15 5.25 15.3358 5.25 15.75C5.25258 18.2342 7.26579 20.2474 9.75 20.25H11.25V21.75C11.25 22.1642 11.5858 22.5 12 22.5C12.4142 22.5 12.75 22.1642 12.75 21.75V20.25H14.25C16.7353 20.25 18.75 18.2353 18.75 15.75C18.75 13.2647 16.7353 11.25 14.25 11.25ZM10.5 11.25C8.84315 11.25 7.5 9.90685 7.5 8.25C7.5 6.59315 8.84315 5.25 10.5 5.25H11.25V11.25H10.5ZM14.25 18.75H12.75V12.75H14.25C15.9069 12.75 17.25 14.0931 17.25 15.75C17.25 17.4069 15.9069 18.75 14.25 18.75Z" fill="#121417"/>
</g>
<defs>
<clipPath id="clip0_2_30">
<rect width="24" height="24" fill="white"/>
</clipPath>
</defs>
</svg>
