<svg width="14" height="22" viewBox="0 0 14 22" fill="none" xmlns="http://www.w3.org/2000/svg">
<path fill-rule="evenodd" clip-rule="evenodd" d="M9.25 10.25H7.75V4.25H8.5C10.1569 4.25 11.5 5.59315 11.5 7.25C11.5 7.66421 11.8358 8 12.25 8C12.6642 8 13 7.66421 13 7.25C12.9974 4.76579 10.9842 2.75258 8.5 2.75H7.75V1.25C7.75 0.835786 7.41421 0.5 7 0.5C6.58579 0.5 6.25 0.835786 6.25 1.25V2.75H5.5C3.01472 2.75 1 4.76472 1 7.25C1 9.73528 3.01472 11.75 5.5 11.75H6.25V17.75H4.75C3.09315 17.75 1.75 16.4069 1.75 14.75C1.75 14.3358 1.41421 14 1 14C0.585786 14 0.25 14.3358 0.25 14.75C0.252584 17.2342 2.26579 19.2474 4.75 19.25H6.25V20.75C6.25 21.1642 6.58579 21.5 7 21.5C7.41421 21.5 7.75 21.1642 7.75 20.75V19.25H9.25C11.7353 19.25 13.75 17.2353 13.75 14.75C13.75 12.2647 11.7353 10.25 9.25 10.25ZM5.5 10.25C3.84315 10.25 2.5 8.90685 2.5 7.25C2.5 5.59315 3.84315 4.25 5.5 4.25H6.25V10.25H5.5ZM9.25 17.75H7.75V11.75H9.25C10.9069 11.75 12.25 13.0931 12.25 14.75C12.25 16.4069 10.9069 17.75 9.25 17.75Z" fill="#121417"/>
</svg>
